<?xml version="1.0" standalone="no"?>
<!DOCTYPE svg PUBLIC "-//W3C//DTD SVG 20010904//EN"
 "http://www.w3.org/TR/2001/REC-SVG-20010904/DTD/svg10.dtd">
<svg version="1.0" xmlns="http://www.w3.org/2000/svg"
 width="960.000000pt" height="960.000000pt" viewBox="0 0 960.000000 960.000000"
 preserveAspectRatio="xMidYMid meet">
<metadata>
Created by potrace 1.16, written by Peter Selinger 2001-2019
</metadata>
<g transform="translate(0.000000,960.000000) scale(0.100000,-0.100000)"
fill="#000000" stroke="none">
<path d="M4615 6330 c-254 -29 -530 -127 -737 -262 -106 -69 -254 -194 -321
-269 l-51 -59 -1749 0 c-1482 0 -1748 -2 -1753 -14 -11 -28 19 -143 53 -209
76 -144 265 -272 474 -319 l96 -21 11 -60 c41 -218 241 -394 516 -454 l73 -16
11 -61 c30 -161 147 -299 324 -385 57 -27 138 -57 181 -67 71 -16 77 -20 77
-43 0 -14 6 -49 14 -77 42 -159 191 -308 378 -378 142 -54 174 -56 759 -56
l541 0 117 -112 c233 -225 508 -370 827 -438 129 -27 384 -37 520 -21 416 51
780 241 1058 551 l49 55 616 3 c681 3 674 2 809 68 156 76 256 213 270 370 l7
79 60 7 c141 18 278 82 371 173 83 83 117 154 124 264 l5 85 69 13 c301 55
525 231 567 444 l11 57 45 7 c75 11 210 61 284 105 97 57 180 144 224 233 34
69 62 187 50 207 -4 6 -662 10 -1764 10 l-1758 0 -109 108 c-140 137 -263 224
-439 312 -151 75 -309 127 -465 154 -117 20 -338 28 -445 16z m470 -54 c50 -9
144 -35 209 -57 578 -193 989 -666 1103 -1272 27 -142 24 -448 -5 -587 -57
-267 -156 -486 -312 -690 -378 -493 -1007 -728 -1615 -605 -510 103 -947 446
-1161 911 -37 80 -114 303 -114 331 0 13 2 14 17 2 10 -9 8 -2 -6 17 -47 64
-65 343 -36 557 95 717 660 1293 1375 1402 123 18 420 13 545 -9z m-1681 -671
c-68 -101 -135 -229 -175 -333 l-24 -62 -1315 2 -1315 3 -74 23 c-168 52 -318
150 -390 256 -33 48 -71 146 -71 181 l0 25 1715 0 1714 0 -65 -95z m6156 76
c0 -10 -9 -48 -20 -84 -49 -157 -208 -293 -422 -359 l-73 -23 -1340 -3 -1340
-2 -24 62 c-41 107 -111 239 -177 336 l-64 92 1730 0 c1691 0 1730 0 1730 -19z
m-6375 -528 c-20 -53 -57 -263 -62 -361 l-6 -113 -971 3 -971 3 -85 28 c-181
61 -312 163 -376 292 -20 41 -39 94 -41 119 l-6 46 1263 0 c1198 0 1262 -1
1255 -17z m5761 -25 c-25 -158 -187 -311 -413 -387 -150 -51 -180 -52 -1163
-49 l-915 3 -3 55 c-5 122 -32 281 -68 403 -5 16 61 17 1282 17 l1287 0 -7
-42z m-638 -543 c-10 -149 -101 -269 -264 -347 -138 -66 -151 -67 -953 -68
-636 0 -713 2 -707 15 29 78 66 293 66 391 0 39 3 74 7 77 3 4 422 7 931 7
l925 0 -5 -75z m-5186 -50 c7 -105 37 -272 62 -343 9 -24 11 -44 6 -47 -5 -3
-314 -4 -687 -2 -672 3 -679 3 -763 26 -230 63 -397 197 -453 365 -10 27 -17
62 -17 78 l0 28 923 -2 922 -3 7 -100z m4623 -473 c-9 -84 -28 -133 -76 -198
-50 -68 -110 -116 -190 -154 -125 -58 -147 -60 -781 -60 -318 0 -578 2 -578 5
0 3 22 38 48 78 66 97 123 204 163 307 19 47 37 87 41 90 3 3 315 4 693 2
l687 -2 -7 -68z m-4516 -2 c37 -96 106 -226 177 -332 41 -61 74 -112 74 -114
0 -2 -227 -4 -504 -4 -405 0 -520 3 -591 15 -233 41 -418 167 -494 337 -29 64
-44 131 -33 142 3 3 309 5 680 4 l674 -3 17 -45z"/>
<path d="M4805 6243 c3 -10 9 -30 12 -46 l6 -27 23 26 c17 18 32 24 52 22 37
-4 39 -34 12 -195 -17 -102 -26 -131 -42 -144 -25 -20 -17 -26 50 -35 70 -9
77 -25 10 -23 -337 6 -557 -49 -781 -197 -354 -235 -551 -655 -506 -1076 29
-268 143 -506 333 -694 181 -179 387 -284 638 -324 113 -18 350 -8 452 20 426
115 734 426 840 845 50 198 39 445 -28 641 -92 270 -289 505 -539 640 -45 25
-89 49 -97 53 -37 21 -130 50 -178 56 -53 7 -54 8 -77 57 -13 28 -25 44 -28
36 -4 -9 -6 -7 -6 4 -1 20 49 311 54 316 2 2 17 1 33 -2 19 -5 34 -17 43 -38
l15 -30 28 36 c19 26 23 37 14 40 -17 6 -312 56 -328 56 -7 0 -10 -7 -5 -17z
m251 -491 c437 -111 761 -471 834 -925 19 -115 8 -318 -23 -439 -64 -244 -212
-462 -420 -619 -93 -70 -178 -115 -297 -156 -131 -46 -209 -58 -375 -57 -130
0 -165 4 -260 28 -409 103 -734 439 -822 846 -27 128 -25 375 5 493 106 425
433 746 853 836 127 28 382 24 505 -7z"/>
<path d="M5409 5322 c-91 -53 -324 -189 -519 -302 -392 -227 -452 -272 -483
-364 -39 -114 -14 -231 67 -312 64 -64 120 -84 231 -84 l82 0 32 -40 c37 -46
36 -52 -17 -133 -27 -42 -55 -68 -102 -97 -65 -40 -66 -40 -167 -40 -92 0
-104 -2 -123 -22 -11 -12 -20 -25 -20 -30 0 -4 70 -8 155 -8 l155 0 10 25 c7
19 17 25 38 25 21 0 32 -7 40 -25 11 -24 15 -25 102 -25 73 0 90 3 90 15 0 21
-38 42 -93 50 -60 8 -56 15 63 95 47 32 92 66 101 76 41 48 29 91 -52 185 -27
31 -49 63 -49 70 0 8 10 47 22 87 l23 73 130 83 c113 71 135 82 166 78 49 -5
65 15 49 63 -6 19 -16 35 -22 35 -5 0 -106 -56 -223 -125 -198 -117 -214 -129
-229 -166 -24 -59 -89 -125 -136 -137 -72 -18 -151 13 -193 76 -52 79 -44 168
22 233 46 46 92 56 185 40 80 -13 29 -39 421 215 234 151 264 168 304 169 29
0 47 5 54 16 12 20 1 68 -17 75 -15 6 -114 -47 -346 -186 -271 -161 -326 -191
-343 -184 -28 10 -19 27 31 59 45 28 246 159 522 340 159 105 160 105 186 95
25 -10 64 12 64 35 0 23 -22 65 -34 65 -6 0 -86 -44 -177 -98z"/>
<path d="M5190 4879 c-113 -67 -250 -148 -305 -181 -100 -59 -100 -59 -133
-44 -77 37 -151 9 -173 -64 -21 -71 26 -139 103 -147 37 -4 49 -1 75 21 17 14
38 43 46 64 12 29 31 48 84 82 37 24 156 101 264 171 187 121 199 127 237 122
38 -5 41 -4 48 21 7 31 -9 76 -28 76 -7 -1 -105 -55 -218 -121z"/>
<path d="M4070 4962 c-42 -21 -78 -71 -85 -121 -8 -52 -17 -65 -152 -214 -95
-105 -120 -140 -116 -156 3 -12 9 -21 13 -21 4 0 57 43 119 95 84 72 111 101
111 119 0 17 15 37 49 65 40 34 49 48 54 83 11 85 100 118 151 57 32 -38 33
-79 3 -114 -18 -21 -33 -27 -75 -30 -51 -4 -56 -7 -213 -142 -89 -75 -156
-139 -151 -141 5 -1 75 39 153 91 79 51 149 97 156 101 7 4 60 -31 132 -89 66
-52 123 -95 128 -95 4 0 6 38 4 85 -5 137 39 229 149 307 33 23 60 45 60 49 0
11 -15 15 -209 54 -198 40 -232 42 -281 17z"/>
<path d="M5043 4513 c-3 -10 -14 -40 -25 -66 -30 -79 -29 -80 70 -100 48 -10
137 -29 197 -42 239 -53 324 -69 328 -65 3 3 7 16 9 30 2 21 -4 28 -42 47 -48
22 -517 213 -526 213 -2 0 -7 -8 -11 -17z"/>
<path d="M4580 6243 c0 -3 7 -14 15 -23 22 -24 39 -319 19 -341 -8 -8 -14 -18
-14 -20 0 -3 32 -3 71 -1 51 3 70 1 65 -7 -4 -6 0 -11 10 -11 15 0 13 5 -9 28
-21 22 -27 39 -30 87 l-3 60 -2 -64 c-3 -104 -12 -64 -23 99 -8 132 -7 156 6
177 l15 23 -60 0 c-33 0 -60 -3 -60 -7z"/>
<path d="M4393 6217 c-38 -14 -52 -27 -30 -27 9 0 23 -13 32 -29 16 -31 68
-222 62 -228 -4 -4 -178 183 -191 205 -4 7 -2 19 4 27 16 19 13 19 -61 -2 -60
-17 -60 -17 -38 -33 16 -13 32 -54 60 -151 42 -144 45 -169 27 -187 -27 -27
-1 -26 91 4 10 3 5 11 -17 24 -27 17 -36 34 -67 135 -35 111 -41 166 -11 95 7
-18 15 -27 17 -21 3 7 49 -35 103 -94 82 -88 102 -105 120 -99 11 4 23 8 24
10 2 1 -15 63 -37 136 -47 150 -59 212 -42 222 15 10 14 26 -1 25 -7 0 -27 -6
-45 -12z"/>
<path d="M5287 6127 c3 -13 -8 -49 -24 -83 -25 -52 -32 -60 -63 -64 -32 -5
-33 -7 -12 -14 18 -6 21 -12 16 -34 -10 -41 -54 -112 -70 -112 -29 0 -12 -21
37 -46 54 -27 71 -25 51 7 -10 16 -7 29 18 79 28 55 51 73 64 51 3 -4 30 -16
60 -25 48 -15 58 -16 88 -3 62 26 76 118 25 165 -25 23 -166 102 -183 102 -6
0 -9 -10 -7 -23z m129 -83 c37 -38 40 -53 23 -87 -27 -51 -79 -51 -147 -1 -2
1 11 29 27 63 19 37 38 61 47 61 9 0 32 -16 50 -36z"/>
<path d="M3508 4610 c-1 -5 -30 -15 -62 -21 -52 -9 -62 -9 -72 5 -16 22 -37
20 -30 -2 4 -11 1 -19 -6 -20 -7 -1 -34 -4 -59 -8 -30 -4 -49 -2 -53 5 -17 26
-22 7 -13 -41 12 -65 14 -68 35 -42 12 15 33 24 68 28 51 6 52 6 62 -23 10
-28 8 -32 -22 -50 -18 -12 -60 -32 -92 -47 -32 -14 -61 -27 -62 -29 -2 -2 7
-19 20 -38 l24 -35 51 52 c28 28 62 57 75 64 23 12 27 11 60 -22 43 -43 75
-46 115 -12 26 22 28 30 28 93 -1 50 -7 79 -23 111 -22 41 -37 52 -44 32z m43
-104 c12 -42 -22 -96 -60 -96 -43 0 -91 51 -91 97 0 18 7 23 38 26 84 9 105 4
113 -27z"/>
<path d="M6032 4545 c-45 -38 -63 -122 -41 -198 8 -31 13 -36 24 -27 9 7 30 9
59 5 35 -6 46 -12 46 -26 0 -28 21 -34 28 -8 l6 24 7 -25 c7 -25 7 -25 8 -2 1
17 6 22 19 18 9 -2 36 -7 59 -11 23 -4 44 -13 47 -21 3 -8 9 -14 14 -14 12 0
41 200 35 234 -7 34 -48 66 -85 66 -37 0 -88 -29 -88 -50 -1 -8 -7 -1 -14 16
-23 51 -76 59 -124 19z m92 -51 c17 -16 22 -89 8 -112 -6 -9 -21 -10 -62 -2
-29 5 -54 10 -56 10 -12 0 -1 86 13 102 20 22 76 24 97 2z m167 -13 c24 -19
30 -59 16 -112 -7 -26 -7 -26 -69 -17 -35 6 -67 14 -72 18 -14 14 4 81 29 106
29 29 64 31 96 5z"/>
<path d="M5942 4255 l-23 -47 33 5 c26 5 54 -4 138 -46 129 -64 147 -86 109
-141 -31 -47 -48 -46 -167 6 -106 45 -135 65 -128 84 3 8 0 11 -8 8 -7 -3 -22
-25 -34 -50 l-22 -44 28 2 c15 1 70 -18 122 -41 122 -56 162 -62 197 -30 46
43 69 129 41 157 -6 6 -8 15 -4 19 4 5 14 -1 22 -11 8 -11 14 -15 14 -9 0 13
-28 37 -60 52 l-25 12 25 -20 c14 -11 22 -21 19 -21 -4 0 -58 24 -120 54 -92
43 -116 59 -124 81 l-10 28 -23 -48z"/>
<path d="M3435 4246 c-56 -26 -88 -57 -104 -99 -14 -37 -14 -94 0 -103 6 -3 8
-17 5 -29 -11 -45 59 -88 132 -82 l47 3 -51 2 c-52 2 -113 32 -122 61 -3 10 5
7 23 -7 63 -50 143 -48 225 3 81 51 105 114 72 189 -38 85 -127 110 -227 62z
m190 -52 c14 -15 25 -36 25 -46 0 -82 -206 -175 -275 -124 -11 8 -20 28 -21
52 -4 45 18 74 81 106 90 47 154 50 190 12z"/>
<path d="M3700 3981 c0 -26 -68 -77 -83 -62 -6 6 -17 11 -25 11 -12 0 -12 -3
-2 -15 9 -11 9 -18 -2 -34 -27 -38 -87 -79 -108 -74 -32 8 -24 -7 48 -92 93
-109 132 -125 192 -77 17 14 23 29 24 65 1 42 3 46 24 40 37 -9 71 6 88 39 29
56 -13 141 -97 194 -46 29 -59 30 -59 5z m117 -101 c23 -80 -57 -121 -118 -61
-16 16 -29 34 -29 40 0 5 21 26 46 45 45 34 47 35 70 18 13 -9 27 -28 31 -42z
m-144 -70 c40 -47 42 -66 12 -105 -37 -49 -71 -47 -119 6 -31 33 -35 43 -25
55 7 8 18 13 26 10 8 -3 12 -2 8 3 -5 9 50 61 65 61 4 0 20 -13 33 -30z"/>
<path d="M5702 3851 c-38 -47 -39 -53 -9 -46 17 4 47 -14 131 -81 59 -47 111
-94 113 -105 3 -10 8 -19 12 -19 6 1 137 167 153 195 5 8 -7 15 -37 22 l-44
10 6 -43 c6 -45 -17 -101 -37 -89 -6 4 -10 -1 -10 -9 0 -10 -43 19 -115 75
-73 59 -115 98 -115 110 0 29 -13 23 -48 -20z"/>
<path d="M5596 3745 c-33 -16 -68 -42 -78 -56 -57 -76 -13 -207 89 -270 71
-44 173 -15 209 60 15 30 15 37 -1 77 -9 24 -23 44 -31 44 -12 0 -12 -4 1 -30
34 -67 7 -119 -67 -127 -42 -5 -49 -2 -88 33 -90 81 -124 170 -80 214 21 21
84 28 95 10 3 -5 12 -10 19 -10 10 0 11 10 6 40 -4 23 -9 42 -11 43 -2 2 -31
-11 -63 -28z"/>
<path d="M3941 3710 c-46 -11 -80 -38 -118 -94 -77 -113 -17 -246 110 -246 83
0 165 88 182 195 5 32 1 47 -17 74 -42 62 -93 85 -157 71z m109 -50 c48 -48 2
-164 -94 -238 -36 -28 -66 -28 -100 -1 -56 44 -11 170 84 235 42 29 83 31 110
4z"/>
<path d="M4170 3550 c0 -22 5 -40 10 -40 6 0 10 4 10 9 0 14 35 23 64 15 33
-8 31 -23 -28 -169 -30 -74 -52 -114 -66 -122 -21 -10 -21 -11 -4 -21 11 -5
36 -15 57 -21 20 -7 37 -19 37 -27 0 -8 4 -14 10 -14 6 0 6 10 -1 27 -7 20 -6
36 6 66 9 22 14 41 12 44 -3 2 -12 -15 -21 -38 -9 -23 -19 -39 -22 -36 -5 5
93 257 106 270 13 14 49 -11 63 -43 l12 -29 29 25 c15 14 26 27 24 29 -4 5
-286 115 -293 115 -3 0 -5 -18 -5 -40z"/>
<path d="M5090 3481 c-36 -4 -75 -12 -87 -19 -56 -31 -70 -101 -30 -148 21
-24 33 -28 88 -31 81 -5 111 -11 105 -22 -3 -5 2 -11 13 -14 30 -8 33 -46 5
-74 -22 -22 -32 -25 -75 -21 -33 3 -58 13 -73 27 -13 13 -26 19 -29 14 -10
-17 -18 -85 -9 -79 4 3 42 7 84 10 92 5 135 25 155 73 17 42 12 72 -20 108
-18 21 -33 27 -82 31 -76 6 -132 23 -139 41 -9 23 13 63 40 73 29 11 68 4 59
-11 -4 -5 2 -9 12 -9 11 0 24 -5 31 -12 6 -6 13 -10 15 -7 8 8 16 79 9 77 -4
0 -36 -4 -72 -7z"/>
<path d="M4480 3471 c0 -5 5 -13 10 -16 15 -9 12 -48 -15 -178 -16 -80 -29
-123 -41 -131 -15 -11 -9 -14 45 -25 41 -8 61 -17 61 -27 0 -7 5 -14 10 -14
18 0 11 20 -16 47 l-26 26 27 139 c18 87 33 142 42 145 24 9 13 22 -24 28 -21
4 -46 9 -55 12 -10 2 -18 0 -18 -6z"/>
<path d="M4713 3436 c-19 -9 -42 -33 -60 -63 -23 -40 -28 -59 -27 -114 0 -113
54 -174 151 -174 49 0 58 3 84 33 28 31 43 102 19 87 -5 -3 -10 -14 -10 -24 0
-35 -39 -71 -76 -71 -75 0 -104 46 -104 164 0 83 22 136 64 150 31 12 73 -14
95 -59 l13 -27 24 42 c13 23 24 43 24 45 0 2 -17 6 -37 9 -95 15 -129 16 -160
2z"/>
</g>
</svg>
